<svg width="72" height="70" viewBox="0 0 72 70" fill="none" xmlns="http://www.w3.org/2000/svg">
<rect width="71.1301" height="70" rx="15" fill="#F25822" fill-opacity="0.25"/>
<path d="M24.1616 25.7778V45.2222H46.7426V25.7778H24.1616ZM22.7503 23H48.1539C48.5282 23 48.8872 23.1463 49.1518 23.4068C49.4165 23.6673 49.5652 24.0205 49.5652 24.3889V46.6111C49.5652 46.9795 49.4165 47.3327 49.1518 47.5932C48.8872 47.8537 48.5282 48 48.1539 48H22.7503C22.376 48 22.017 47.8537 21.7524 47.5932C21.4877 47.3327 21.339 46.9795 21.339 46.6111V24.3889C21.339 24.0205 21.4877 23.6673 21.7524 23.4068C22.017 23.1463 22.376 23 22.7503 23V23ZM39.3939 32.4347L36.8634 29.9444H43.92V36.8889L41.3895 34.3986L35.9362 39.7653L32.9428 36.8194L28.9502 40.7472L26.9546 38.7833L32.9428 32.8903L35.9362 35.8375L39.3939 32.4347Z" fill="#F25822"/>
</svg>
