<svg width="70" height="70" viewBox="0 0 70 70" fill="none" xmlns="http://www.w3.org/2000/svg">
<rect width="70" height="70" rx="15" fill="#149211" fill-opacity="0.28"/>
<path d="M41.5546 47C41.4314 46.9999 41.3092 46.9786 41.1934 46.9373C40.97 46.8568 40.7806 46.7049 40.6554 46.5058C40.5302 46.3068 40.4765 46.0722 40.5029 45.8395L41.3208 38.4273H35.0639C34.8709 38.4276 34.6815 38.3761 34.516 38.2785C34.3505 38.1808 34.2151 38.0406 34.1245 37.8729C34.0338 37.7052 33.9913 37.5164 34.0015 37.3268C34.0116 37.1371 34.0741 36.9538 34.1822 36.7964L42.5637 24.4601C42.6963 24.267 42.8906 24.1231 43.1158 24.0511C43.3409 23.9792 43.5841 23.9833 43.8066 24.0628C44.0206 24.141 44.2032 24.2849 44.3276 24.4732C44.4519 24.6614 44.5114 24.8841 44.4971 25.1083L43.6792 32.5728H49.9361C50.1291 32.5725 50.3185 32.624 50.484 32.7216C50.6495 32.8193 50.7849 32.9595 50.8755 33.1272C50.9662 33.2949 51.0087 33.4837 50.9985 33.6733C50.9884 33.863 50.9259 34.0463 50.8178 34.2037L42.4363 46.54C42.3388 46.6819 42.2075 46.798 42.0537 46.8782C41.9 46.9584 41.7286 47.0003 41.5546 47V47ZM37.0504 36.3364H42.5C42.6482 36.3368 42.7948 36.3676 42.9301 36.427C43.0655 36.4865 43.1868 36.5731 43.2861 36.6814C43.3864 36.7912 43.4618 36.9206 43.5076 37.0611C43.5534 37.2017 43.5684 37.3502 43.5517 37.4969L43.0736 41.8355L47.9496 34.6637H42.5C42.3501 34.6646 42.2017 34.6342 42.0646 34.5747C41.9274 34.5151 41.8046 34.4276 41.7043 34.318C41.604 34.2084 41.5283 34.0791 41.4824 33.9387C41.4364 33.7983 41.4212 33.6499 41.4377 33.5032L41.9157 29.1646L37.0504 36.3364Z" fill="#149211"/>
</svg>
